<?xml version="1.0" standalone="no"?>
<!DOCTYPE svg PUBLIC "-//W3C//DTD SVG 20010904//EN"
 "http://www.w3.org/TR/2001/REC-SVG-20010904/DTD/svg10.dtd">
<svg version="1.0" xmlns="http://www.w3.org/2000/svg"
 width="960.000000pt" height="960.000000pt" viewBox="0 0 960.000000 960.000000"
 preserveAspectRatio="xMidYMid meet">
<metadata>
Created by potrace 1.14, written by Peter Selinger 2001-2017
</metadata>
<g transform="translate(0.000000,960.000000) scale(0.100000,-0.100000)"
fill="#000000" stroke="none">
<path d="M2355 9590 c-148 -23 -139 -21 -230 -45 -87 -24 -170 -53 -255 -92
-83 -39 -191 -101 -202 -117 -4 -6 -8 -7 -8 -3 0 4 -6 3 -12 -2 -7 -6 -47 -37
-88 -70 -142 -112 -248 -228 -349 -378 -69 -104 -150 -268 -182 -370 -11 -37
-23 -75 -26 -83 -7 -18 -12 -38 -17 -65 -2 -11 -6 -27 -9 -35 -6 -15 -12 -51
-24 -155 -15 -121 -7 -377 14 -450 5 -16 9 -37 8 -45 -1 -8 3 -21 8 -27 5 -7
7 -13 4 -13 -3 0 -1 -15 4 -32 6 -18 17 -57 25 -87 8 -30 19 -60 24 -66 5 -6
11 -20 13 -31 1 -10 40 -95 86 -189 47 -93 84 -173 83 -177 -1 -3 5 -12 13
-18 8 -7 15 -17 15 -22 0 -5 162 -334 360 -732 198 -397 360 -728 360 -734 0
-7 3 -12 8 -12 8 0 32 -48 32 -66 0 -7 3 -14 8 -16 9 -4 72 -131 72 -146 0 -7
3 -12 8 -12 8 0 32 -48 32 -66 0 -7 3 -14 8 -16 6 -2 184 -353 187 -368 0 -3
6 -15 13 -27 10 -19 4 -37 -53 -149 -36 -70 -65 -133 -65 -140 0 -7 -4 -14 -8
-16 -4 -1 -23 -34 -41 -73 -19 -38 -39 -73 -45 -77 -6 -4 -8 -8 -4 -8 4 0 -42
-97 -102 -215 -59 -118 -106 -215 -104 -215 3 0 -2 -7 -10 -16 -9 -8 -14 -20
-11 -25 4 -5 2 -9 -3 -9 -4 0 -21 -29 -37 -65 -15 -36 -32 -65 -36 -65 -5 0
-8 -3 -7 -7 3 -10 -114 -246 -125 -254 -5 -3 -9 -9 -9 -12 0 -19 -12 -47 -19
-47 -5 0 -9 -5 -9 -11 0 -10 -104 -223 -119 -244 -4 -5 -16 -30 -26 -55 -10
-25 -27 -56 -36 -70 -9 -14 -18 -29 -19 -35 -6 -22 -25 -61 -42 -84 -10 -13
-16 -27 -13 -31 3 -4 -2 -13 -10 -20 -8 -7 -15 -21 -15 -31 0 -9 -7 -25 -16
-33 -8 -9 -13 -16 -9 -16 3 0 -3 -13 -14 -29 -12 -16 -21 -36 -21 -44 0 -8 -7
-20 -15 -27 -8 -7 -15 -21 -15 -31 0 -11 -4 -19 -9 -19 -5 0 -15 -17 -22 -38
-6 -20 -15 -39 -18 -42 -8 -7 -102 -198 -100 -206 0 -4 -3 -10 -8 -13 -10 -7
-147 -282 -148 -296 -1 -5 -6 -19 -12 -30 -12 -22 -51 -138 -59 -176 -3 -13
-7 -33 -9 -44 -3 -11 -7 -29 -9 -40 -2 -11 -7 -31 -10 -45 -23 -95 -22 -379 1
-475 3 -11 6 -31 7 -45 6 -52 60 -227 88 -283 10 -20 16 -37 14 -37 -4 0 26
-56 96 -183 7 -12 15 -24 18 -27 3 -3 16 -22 30 -42 14 -21 28 -38 33 -38 4 0
7 -6 7 -14 0 -22 227 -245 295 -291 33 -22 62 -42 65 -45 10 -10 47 -31 142
-80 108 -55 265 -111 353 -126 11 -2 31 -5 45 -8 14 -3 52 -10 85 -15 101 -17
5510 -8 5510 9 0 1 14 4 30 6 17 3 55 12 85 20 30 8 63 17 73 19 62 14 225 87
312 139 142 85 303 231 401 362 33 44 62 81 67 82 4 2 7 10 7 17 0 8 6 20 13
27 12 12 103 186 104 198 0 3 8 22 16 42 17 41 57 172 61 203 2 11 4 20 5 20
1 0 4 15 7 34 2 19 7 46 10 60 3 14 7 91 9 171 5 206 -29 397 -104 575 -13 31
-120 244 -151 300 -38 69 -74 139 -75 145 0 3 -5 12 -10 20 -5 8 -19 33 -30
55 -29 55 -154 292 -209 395 -25 47 -69 132 -98 190 -29 58 -56 107 -59 110
-3 3 -41 73 -84 155 -75 145 -147 283 -247 470 -26 50 -67 128 -90 175 -24 47
-45 87 -48 90 -3 3 -22 37 -41 75 -20 39 -58 113 -85 165 -27 52 -51 97 -54
100 -3 3 -17 30 -33 60 -15 30 -63 123 -108 205 -44 83 -85 162 -90 178 -6 15
-15 27 -20 27 -14 0 -11 20 10 64 10 23 21 48 25 56 3 8 17 35 31 59 14 24 25
50 25 57 0 7 3 14 8 16 9 4 52 90 51 102 0 5 3 12 8 15 10 7 74 138 72 147 0
4 3 10 8 13 13 10 84 151 76 151 -5 0 -3 4 2 8 6 4 33 52 59 107 27 55 54 103
60 107 6 4 8 8 5 8 -6 0 319 655 426 860 16 30 30 57 30 60 3 9 30 65 55 110
13 25 24 47 25 50 0 3 9 21 20 40 11 19 20 37 21 40 1 3 5 15 9 28 4 12 11 22
16 22 5 0 9 4 9 10 0 8 36 83 103 215 13 27 55 118 77 170 7 16 19 52 25 75 1
3 5 12 8 20 13 29 42 147 51 204 18 109 20 143 20 276 -1 134 -6 220 -20 281
-3 13 -7 35 -10 49 -19 94 -56 207 -100 305 -10 22 -19 42 -20 45 -9 29 -30
70 -37 70 -4 0 -6 4 -3 9 3 5 -1 14 -9 21 -8 7 -15 16 -15 21 0 8 -59 103 -83
134 -12 16 -45 58 -69 88 -64 79 -244 248 -294 275 -13 7 -24 17 -24 22 0 6
-7 10 -15 10 -8 0 -24 9 -34 19 -11 11 -21 17 -24 15 -2 -2 -10 2 -17 11 -7 8
-18 15 -25 15 -7 0 -18 7 -25 15 -7 9 -15 13 -18 10 -3 -3 -12 1 -21 8 -19 17
-153 73 -163 70 -5 -2 -8 2 -8 7 0 6 -9 10 -20 10 -11 0 -28 4 -38 9 -20 12
-173 51 -216 57 -17 2 -42 7 -56 11 -33 10 -4781 13 -4845 3z"/>
</g>
</svg>
